<svg width="450" height="450" viewBox="0 0 450 450" fill="none" xmlns="http://www.w3.org/2000/svg">
<g clip-path="url(#clip0_1_3)">
<mask id="mask0_1_3" style="mask-type:luminance" maskUnits="userSpaceOnUse" x="0" y="0" width="450" height="450">
<path d="M0 0H450V450H0V0Z" fill="white"/>
</mask>
<g mask="url(#mask0_1_3)">
<mask id="mask1_1_3" style="mask-type:alpha" maskUnits="userSpaceOnUse" x="0" y="0" width="450" height="450">
<path d="M225 0C252.954 140.359 308.826 196.776 450 225C308.792 253.224 252.92 309.641 225 450C197.046 309.641 141.174 253.19 0 225C141.206 196.776 197.08 140.359 225 0Z" fill="white"/>
</mask>
<g mask="url(#mask1_1_3)">
<path d="M450 0H0V450H450V0Z" fill="white"/>
<g filter="url(#filter0_f_1_3)">
<path d="M479.25 155.25H209.25V472.5H479.25V155.25Z" fill="#0066FF"/>
</g>
</g>
</g>
</g>
<defs>
<filter id="filter0_f_1_3" x="84.25" y="30.25" width="520" height="567.25" filterUnits="userSpaceOnUse" color-interpolation-filters="sRGB">
<feFlood flood-opacity="0" result="BackgroundImageFix"/>
<feBlend mode="normal" in="SourceGraphic" in2="BackgroundImageFix" result="shape"/>
<feGaussianBlur stdDeviation="62.5" result="effect1_foregroundBlur_1_3"/>
</filter>
<clipPath id="clip0_1_3">
<rect width="450" height="450" fill="white"/>
</clipPath>
</defs>
</svg>
